<svg width="100" height="100" xmlns="http://www.w3.org/2000/svg">
    <defs>
        <pattern id="circuitPatternVariante" patternUnits="userSpaceOnUse" width="100" height="100">
            <rect width="100" height="100" fill="#1a1a1a" />
            
            <!-- Caminos del circuito variante -->
            <path d="M20 10 L20 40 L80 40 L80 70" stroke="#00ffcc" stroke-width="2" fill="none" />
            <path d="M10 30 L30 30 L30 90 L90 90" stroke="#00ffcc" stroke-width="2" fill="none" />
            
            <!-- Nodos -->
            <circle cx="20" cy="40" r="3" fill="#00ffcc" />
            <circle cx="80" cy="40" r="3" fill="#00ffcc" />
            <circle cx="80" cy="70" r="3" fill="#00ffcc" />
            <circle cx="30" cy="30" r="3" fill="#00ffcc" />
            <circle cx="30" cy="90" r="3" fill="#00ffcc" />
            <circle cx="90" cy="90" r="3" fill="#00ffcc" />
            
            <!-- Más caminos de interconexión -->
            <path d="M40 20 L60 50 L40 80" stroke="#00ffcc" stroke-width="2" fill="none" />
            <circle cx="60" cy="50" r="3" fill="#00ffcc" />
            <circle cx="40" cy="20" r="3" fill="#00ffcc" />
            <circle cx="40" cy="80" r="3" fill="#00ffcc" />
            
            <!-- Caminos adicionales para continuidad -->
            <path d="M10 10 L30 50" stroke="#00ffcc" stroke-width="2" fill="none" />
            <circle cx="30" cy="50" r="3" fill="#00ffcc" />
            <path d="M90 70 L70 30" stroke="#00ffcc" stroke-width="2" fill="none" />
            <circle cx="70" cy="30" r="3" fill="#00ffcc" />
        </pattern>
    </defs>
    <rect width="100" height="100" fill="url(#circuitPatternVariante)" />
</svg>
