<svg width="100" height="100" xmlns="http://www.w3.org/2000/svg">
    <defs>
        <pattern id="circuitPattern" patternUnits="userSpaceOnUse" width="100" height="100">
            <rect width="100" height="100" fill="#1a1a1a" />
            
            <!-- Caminos del circuito -->
            <path d="M10 20 L40 20 L40 80 L80 80" stroke="#00ffcc" stroke-width="2" fill="none" />
            <path d="M60 10 L60 60 L20 60 L20 90" stroke="#00ffcc" stroke-width="2" fill="none" />
            
            <!-- Nodos -->
            <circle cx="40" cy="20" r="3" fill="#00ffcc" />
            <circle cx="40" cy="80" r="3" fill="#00ffcc" />
            <circle cx="80" cy="80" r="3" fill="#00ffcc" />
            <circle cx="60" cy="60" r="3" fill="#00ffcc" />
            <circle cx="20" cy="60" r="3" fill="#00ffcc" />
            <circle cx="20" cy="90" r="3" fill="#00ffcc" />
            
            <!-- Más caminos de interconexión -->
            <path d="M20 20 L50 50 L80 20" stroke="#00ffcc" stroke-width="2" fill="none" />
            <circle cx="50" cy="50" r="3" fill="#00ffcc" />
            <circle cx="20" cy="20" r="3" fill="#00ffcc" />
            <circle cx="80" cy="20" r="3" fill="#00ffcc" />
            
            <!-- Caminos adicionales para continuidad -->
            <path d="M10 10 L30 30" stroke="#00ffcc" stroke-width="2" fill="none" />
            <circle cx="30" cy="30" r="3" fill="#00ffcc" />
            <path d="M90 90 L70 70" stroke="#00ffcc" stroke-width="2" fill="none" />
            <circle cx="70" cy="70" r="3" fill="#00ffcc" />
        </pattern>
    </defs>
    <rect width="100" height="100" fill="url(#circuitPattern)" />
</svg>
